<svg width="35" height="35" viewBox="0 0 35 35" fill="none" xmlns="http://www.w3.org/2000/svg">
<path d="M0.743563 17.3479C0.742746 20.2983 1.51367 23.1792 2.97956 25.7185L0.603371 34.3943L9.48203 32.0663C11.9378 33.4032 14.6892 34.1037 17.4852 34.1039H17.4926C26.7228 34.1039 34.2364 26.593 34.2404 17.3611C34.2421 12.8876 32.5016 8.68103 29.3392 5.51622C26.1774 2.35169 21.9723 0.607999 17.4919 0.605957C8.26059 0.605957 0.74751 8.11645 0.743699 17.3479" fill="url(#paint0_linear_260_138)"/>
<path d="M0.145637 17.3425C0.144684 20.3991 0.943235 23.383 2.46139 26.0131L0 35L9.19702 32.5886C11.7311 33.9702 14.5842 34.6987 17.4874 34.6997H17.4949C27.0563 34.6997 34.8398 26.9187 34.8439 17.3563C34.8455 12.7221 33.0423 8.3643 29.767 5.08612C26.4913 1.80834 22.1358 0.00190552 17.4949 0C7.93188 0 0.149448 7.77999 0.145637 17.3425ZM5.6228 25.5602L5.27939 25.0151C3.83582 22.7197 3.07388 20.0672 3.07497 17.3435C3.07797 9.39546 9.54641 2.92906 17.5003 2.92906C21.3522 2.9307 24.9722 4.43225 27.6949 7.15661C30.4175 9.88124 31.9156 13.5031 31.9147 17.3552C31.9111 25.3033 25.4426 31.7705 17.4949 31.7705H17.4892C14.9013 31.7692 12.3633 31.0742 10.1499 29.7609L9.62317 29.4485L4.16548 30.8794L5.6228 25.5602Z" fill="url(#paint1_linear_260_138)"/>
<path d="M13.1587 10.0922C12.834 9.37042 12.4922 9.35585 12.1834 9.3432C11.9305 9.33231 11.6414 9.33312 11.3526 9.33312C11.0635 9.33312 10.5938 9.44188 10.1967 9.87538C9.7993 10.3093 8.67939 11.3579 8.67939 13.4906C8.67939 15.6233 10.2328 17.6845 10.4494 17.974C10.6662 18.263 13.4482 22.7796 17.8544 24.5172C21.5162 25.9611 22.2614 25.674 23.0562 25.6015C23.851 25.5294 25.621 24.5532 25.9821 23.541C26.3435 22.5289 26.3435 21.6613 26.2351 21.48C26.1268 21.2994 25.8377 21.1909 25.4042 20.9742C24.9707 20.7576 22.8393 19.7087 22.442 19.564C22.0446 19.4195 21.7556 19.3473 21.4666 19.7814C21.1775 20.2148 20.3473 21.1909 20.0943 21.48C19.8416 21.7698 19.5885 21.8059 19.1552 21.5891C18.7214 21.3715 17.3253 20.9144 15.669 19.4377C14.3803 18.2887 13.5103 16.8697 13.2574 16.4357C13.0045 16.0023 13.2303 15.7674 13.4477 15.5514C13.6425 15.3572 13.8813 15.0452 14.0983 14.7922C14.3144 14.539 14.3866 14.3584 14.5311 14.0693C14.6758 13.7799 14.6034 13.5268 14.4952 13.31C14.3866 13.0931 13.5442 10.9493 13.1587 10.0922Z" fill="white"/>
<defs>
<linearGradient id="paint0_linear_260_138" x1="1742.19" y1="3500" x2="1742.19" y2="0" gradientUnits="userSpaceOnUse">
<stop stop-color="#1FAF38"/>
<stop offset="1" stop-color="#60D669"/>
</linearGradient>
<linearGradient id="paint1_linear_260_138" x1="1742.19" y1="3500" x2="1742.19" y2="0" gradientUnits="userSpaceOnUse">
<stop stop-color="#F9F9F9"/>
<stop offset="1" stop-color="white"/>
</linearGradient>
</defs>
</svg>
