<svg width="19" height="19" viewBox="0 0 19 19" fill="none" xmlns="http://www.w3.org/2000/svg">
<path d="M15.5833 2.93709C14.7429 2.08818 13.7419 1.41511 12.6387 0.957133C11.5354 0.499151 10.352 0.265424 9.1575 0.269586C4.1525 0.269586 0.0733335 4.34875 0.0733335 9.35375C0.0733335 10.9579 0.495 12.5163 1.28333 13.8913L0 18.6029L4.8125 17.3379C6.14167 18.0621 7.63583 18.4471 9.1575 18.4471C14.1625 18.4471 18.2417 14.3679 18.2417 9.36292C18.2417 6.93375 17.2975 4.65125 15.5833 2.93709ZM9.1575 16.9071C7.80083 16.9071 6.47167 16.5404 5.3075 15.8529L5.0325 15.6879L2.1725 16.4396L2.93333 13.6529L2.75 13.3688C1.99627 12.1651 1.59605 10.7739 1.595 9.35375C1.595 5.19209 4.98667 1.80042 9.14833 1.80042C11.165 1.80042 13.0625 2.58875 14.4833 4.01875C15.1869 4.71905 15.7444 5.55203 16.1236 6.46939C16.5028 7.38676 16.6962 8.37027 16.6925 9.36292C16.7108 13.5246 13.3192 16.9071 9.1575 16.9071ZM13.3008 11.2604C13.0717 11.1504 11.9533 10.6004 11.7517 10.5179C11.5408 10.4446 11.3942 10.4079 11.2383 10.6279C11.0825 10.8571 10.6517 11.3704 10.5233 11.5171C10.395 11.6729 10.2575 11.6913 10.0283 11.5721C9.79917 11.4621 9.06583 11.2146 8.20417 10.4446C7.52583 9.83959 7.07667 9.09709 6.93917 8.86792C6.81083 8.63875 6.92083 8.51959 7.04 8.40042C7.14083 8.29959 7.26917 8.13459 7.37917 8.00625C7.48917 7.87792 7.535 7.77709 7.60833 7.63042C7.68167 7.47459 7.645 7.34625 7.59 7.23625C7.535 7.12625 7.07667 6.00792 6.89333 5.54959C6.71 5.10959 6.5175 5.16459 6.38 5.15542H5.94C5.78417 5.15542 5.54583 5.21042 5.335 5.43959C5.13333 5.66875 4.54667 6.21875 4.54667 7.33709C4.54667 8.45542 5.3625 9.53709 5.4725 9.68375C5.5825 9.83959 7.07667 12.1313 9.35 13.1121C9.89083 13.3504 10.3125 13.4879 10.6425 13.5888C11.1833 13.7629 11.6783 13.7354 12.0725 13.6804C12.5125 13.6163 13.42 13.1304 13.6033 12.5988C13.7958 12.0671 13.7958 11.6179 13.7317 11.5171C13.6675 11.4163 13.53 11.3704 13.3008 11.2604Z" fill="#29292B"/>
</svg>
