<svg width="50" height="50" viewBox="0 0 50 50" fill="none" xmlns="http://www.w3.org/2000/svg">
<path d="M1.06699 24.7827C1.06582 28.9976 2.17207 33.1132 4.27559 36.7407L0.86582 49.1347L13.6064 45.809C17.1304 47.7188 21.0786 48.7195 25.0908 48.7198H25.1014C38.3465 48.7198 49.1283 37.9899 49.134 24.8016C49.1365 18.4109 46.6389 12.4015 42.101 7.88032C37.5639 3.35956 31.5297 0.868569 25.1004 0.865653C11.8537 0.865653 1.07266 11.5949 1.06719 24.7827" fill="url(#paint0_linear_258_26)"/>
<path d="M0.208984 24.7749C0.207617 29.1415 1.35352 33.4042 3.53203 37.1616L0 50L13.1975 46.5551C16.8338 48.5289 20.9279 49.5695 25.0939 49.5711H25.1047C38.825 49.5711 49.9941 38.4552 50 24.7948C50.0023 18.1744 47.4148 11.949 42.7148 7.26588C38.0143 2.58335 31.7643 0.00272218 25.1047 0C11.382 0 0.214453 11.1143 0.208984 24.7749ZM8.06855 36.5145L7.57578 35.7358C5.5043 32.4567 4.41094 28.6675 4.4125 24.7765C4.4168 13.4221 13.6988 4.18438 25.1125 4.18438C30.6398 4.18671 35.8344 6.33179 39.7414 10.2237C43.6482 14.116 45.798 19.2901 45.7967 24.7932C45.7916 36.1476 36.5094 45.3865 25.1047 45.3865H25.0965C21.383 45.3845 17.741 44.3917 14.5648 42.5156L13.809 42.0693L5.97734 44.1135L8.06855 36.5145Z" fill="url(#paint1_linear_258_26)"/>
<path d="M18.8824 14.4174C18.4164 13.3863 17.926 13.3655 17.4828 13.3474C17.1199 13.3319 16.7051 13.333 16.2906 13.333C15.8758 13.333 15.2018 13.4884 14.632 14.1077C14.0617 14.7276 12.4547 16.2255 12.4547 19.2722C12.4547 22.3189 14.6838 25.2636 14.9945 25.6771C15.3057 26.0899 19.2979 32.5423 25.6205 35.0245C30.8752 37.0873 31.9445 36.6771 33.085 36.5736C34.2256 36.4706 36.7654 35.076 37.2836 33.63C37.8021 32.1841 37.8022 30.9447 37.6467 30.6858C37.4912 30.4277 37.0764 30.2728 36.4543 29.9632C35.8322 29.6537 32.7738 28.1553 32.2037 27.9486C31.6334 27.7421 31.2188 27.6391 30.8039 28.2591C30.3891 28.8782 29.1979 30.2728 28.8348 30.6858C28.4721 31.0997 28.109 31.1512 27.4871 30.8415C26.8646 30.5308 24.8613 29.8777 22.4846 27.7682C20.6354 26.1267 19.3869 24.0996 19.024 23.4796C18.6611 22.8605 18.9852 22.5249 19.2971 22.2163C19.5766 21.9388 19.9193 21.4932 20.2307 21.1317C20.5408 20.77 20.6443 20.512 20.8518 20.099C21.0594 19.6856 20.9555 19.324 20.8002 19.0142C20.6443 18.7045 19.4355 15.6418 18.8824 14.4174Z" fill="white"/>
<defs>
<linearGradient id="paint0_linear_258_26" x1="2500" y1="5000" x2="2500" y2="0" gradientUnits="userSpaceOnUse">
<stop stop-color="#1FAF38"/>
<stop offset="1" stop-color="#60D669"/>
</linearGradient>
<linearGradient id="paint1_linear_258_26" x1="2500" y1="5000" x2="2500" y2="0" gradientUnits="userSpaceOnUse">
<stop stop-color="#F9F9F9"/>
<stop offset="1" stop-color="white"/>
</linearGradient>
</defs>
</svg>
