<svg width="35" height="36" viewBox="0 0 35 36" fill="none" xmlns="http://www.w3.org/2000/svg">
<path d="M0.746894 17.8479C0.746074 20.7983 1.52045 23.6792 2.99291 26.2185L0.606074 34.8943L9.52451 32.5663C11.9912 33.9032 14.755 34.6037 17.5636 34.6039H17.571C26.8425 34.6039 34.3898 27.093 34.3938 17.8611C34.3956 13.3876 32.6472 9.18103 29.4707 6.01622C26.2947 2.85169 22.0708 1.108 17.5703 1.10596C8.2976 1.10596 0.750859 8.61645 0.747031 17.8479" fill="url(#paint0_linear_258_5)"/>
<path d="M0.146289 17.8425C0.145332 20.8991 0.947461 23.883 2.47242 26.5131L0 35.5L9.23822 33.0886C11.7837 34.4702 14.6496 35.1987 17.5658 35.1997H17.5733C27.1775 35.1997 34.9959 27.4187 35 17.8563C35.0016 13.2221 33.1904 8.8643 29.9004 5.58612C26.61 2.30834 22.235 0.501906 17.5733 0.5C7.96742 0.5 0.150117 8.27999 0.146289 17.8425ZM5.64799 26.0602L5.30305 25.5151C3.85301 23.2197 3.08766 20.5672 3.08875 17.8435C3.09176 9.89546 9.58918 3.42906 17.5788 3.42906C21.4479 3.4307 25.0841 4.93225 27.819 7.65661C30.5538 10.3812 32.0586 14.0031 32.0577 17.8552C32.0541 25.8033 25.5566 32.2705 17.5733 32.2705H17.5675C14.9681 32.2692 12.4187 31.5742 10.1954 30.2609L9.66629 29.9485L4.18414 31.3794L5.64799 26.0602Z" fill="url(#paint1_linear_258_5)"/>
<path d="M13.2177 10.5922C12.8915 9.87042 12.5482 9.85585 12.238 9.8432C11.9839 9.83231 11.6936 9.83312 11.4034 9.83312C11.113 9.83312 10.6412 9.94188 10.2424 10.3754C9.8432 10.8093 8.71828 11.8579 8.71828 13.9906C8.71828 16.1233 10.2787 18.1845 10.4962 18.474C10.714 18.763 13.5085 23.2796 17.9344 25.0172C21.6126 26.4611 22.3612 26.174 23.1595 26.1015C23.9579 26.0294 25.7358 25.0532 26.0985 24.041C26.4615 23.0289 26.4615 22.1613 26.3527 21.98C26.2438 21.7994 25.9535 21.6909 25.518 21.4742C25.0826 21.2576 22.9417 20.2087 22.5426 20.064C22.1434 19.9195 21.8531 19.8473 21.5627 20.2814C21.2723 20.7148 20.4385 21.6909 20.1843 21.98C19.9305 22.2698 19.6763 22.3059 19.241 22.0891C18.8053 21.8715 17.4029 21.4144 15.7392 19.9377C14.4447 18.7887 13.5708 17.3697 13.3168 16.9357C13.0628 16.5023 13.2896 16.2674 13.5079 16.0514C13.7036 15.8572 13.9435 15.5452 14.1615 15.2922C14.3786 15.039 14.451 14.8584 14.5962 14.5693C14.7416 14.2799 14.6688 14.0268 14.5601 13.81C14.451 13.5931 13.6049 11.4493 13.2177 10.5922Z" fill="white"/>
<defs>
<linearGradient id="paint0_linear_258_5" x1="1750" y1="3500.5" x2="1750" y2="0.5" gradientUnits="userSpaceOnUse">
<stop stop-color="#1FAF38"/>
<stop offset="1" stop-color="#60D669"/>
</linearGradient>
<linearGradient id="paint1_linear_258_5" x1="1750" y1="3500.5" x2="1750" y2="0.5" gradientUnits="userSpaceOnUse">
<stop stop-color="#F9F9F9"/>
<stop offset="1" stop-color="white"/>
</linearGradient>
</defs>
</svg>
